<?xml version="1.0" ?><svg height="32" id="svg4063" version="1.1" viewBox="0 0 32 32.000001" width="32" xmlns="http://www.w3.org/2000/svg" xmlns:cc="http://creativecommons.org/ns#" xmlns:dc="http://purl.org/dc/elements/1.1/" xmlns:inkscape="http://www.inkscape.org/namespaces/inkscape" xmlns:rdf="http://www.w3.org/1999/02/22-rdf-syntax-ns#" xmlns:sodipodi="http://sodipodi.sourceforge.net/DTD/sodipodi-0.dtd" xmlns:svg="http://www.w3.org/2000/svg"><defs id="defs4065"/><g id="layer1" transform="translate(0,-1020.3621)"><g id="g7966" transform="translate(-766.49658,-562.0323)"><g id="g8296"><path d="m 791.49658,1590.3944 0,18.5 c 0,0.831 -0.669,1.5 -1.50001,1.5 l -15.99997,0 c -0.83101,0 -1.50002,-0.669 -1.50002,-1.5 l 0,-22 c 0,-0.831 0.66901,-1.5 1.50002,-1.5 l 12.49998,0" id="path4992" style="opacity:1;fill:#f5ba15;fill-opacity:1;stroke:none;stroke-width:1;stroke-linecap:round;stroke-linejoin:round;stroke-miterlimit:4.0999999;stroke-dasharray:none"/><path d="m 786.49661,1585.3944 0,3.5 c 0,0.831 0.66899,1.5 1.5,1.5 l 3.5,0 z" id="path5330" style="opacity:1;fill:#fadc87;fill-opacity:1;stroke:none;stroke-width:1;stroke-linecap:round;stroke-linejoin:round;stroke-miterlimit:4.0999999;stroke-dasharray:none"/><path d="m 776.49731,1594.3944 0,11 11,0 0,-11 -11,0 z m 2,3 7,0 0,5 -7,0 0,-5 z" id="path5332" style="fill:#ffffff;fill-opacity:1;stroke:none;stroke-width:0.99999994;stroke-linecap:round;stroke-linejoin:round"/></g></g></g></svg>