<?xml version="1.0" ?><svg viewBox="0 0 40 40" xmlns="http://www.w3.org/2000/svg"><defs><style>.cls-1{fill:#4d4d4d;}.cls-2{fill:#1a1a1a;}.cls-3{fill:#333;}.cls-4{fill:#666;}.cls-5{fill:#fff;}</style></defs><g id="Exel"><g data-name="Excel 32x" id="Excel_32x"><path class="cls-1" d="M14.16,7.18H32.82a1.12,1.12,0,0,1,.83.36A1.24,1.24,0,0,1,34,8.4V31.54a1.24,1.24,0,0,1-.34.86,1.12,1.12,0,0,1-.83.36H14.16A1.18,1.18,0,0,1,13,31.56h0V8.4a1.19,1.19,0,0,1,1.15-1.22Z" id="Path-47"/><path class="cls-2" d="M13,20V31.58a1.19,1.19,0,0,0,1.12,1.24h18.7A1.19,1.19,0,0,0,34,31.61h0V20Z" id="Path-48"/><path class="cls-3" d="M13,13.58H34V20H13Z" id="Rectangle-12"/><path class="cls-4" d="M32.82,7.18H23.5V26.37H34V8.4a1.24,1.24,0,0,0-.34-.86A1.12,1.12,0,0,0,32.82,7.18Z" id="Path-49"/><path class="cls-1" d="M23.5,13.58H34V20H23.5Z" id="Rectangle-13"/><path class="cls-3" d="M23.5,20H34v6.4H23.5Z" id="Rectangle-14"/><path d="M7.17,12.66H18.83A1.21,1.21,0,0,1,20,13.89V26.06a1.21,1.21,0,0,1-1.15,1.25H7.17A1.19,1.19,0,0,1,6,26.1H6V13.89A1.21,1.21,0,0,1,7.17,12.66Z" data-name="Back Plate-3" id="Back_Plate-3"/><path class="cls-5" d="M9.18,24.54l2.75-4.48L9.4,15.63h2l1.37,2.83c.1.21.19.41.27.63a5.11,5.11,0,0,1,.29-.63l1.45-2.81h1.86l-2.56,4.41,2.65,4.47h-2l-1.6-3.08c-.07-.13-.13-.27-.19-.41a2.09,2.09,0,0,1-.19.4l-1.63,3.11Z" id="Path-67"/></g></g></svg>