<svg version="1.1" viewBox="0.0 0.0 960.0 720.0" fill="none" stroke="none" stroke-linecap="square" stroke-miterlimit="10" xmlns:xlink="http://www.w3.org/1999/xlink" xmlns="http://www.w3.org/2000/svg"><clipPath id="p.0"><path d="m0 0l960.0 0l0 720.0l-960.0 0l0 -720.0z" clip-rule="nonzero"/></clipPath><g clip-path="url(#p.0)"><path fill="#000000" fill-opacity="0.0" d="m0 0l960.0 0l0 720.0l-960.0 0z" fill-rule="evenodd"/><path fill="#ffffff" d="m17.627296 192.5433l1.3569546 520.6771l147.79527 -124.74542l360.67712 0l-2.7112427 -406.77948l-1.3543701 -17.627304l-505.76376 -1.3569489z" fill-rule="evenodd"/><path fill="#ffffff" d="m166.77953 88.13789l0 0c0 -38.94193 31.568665 -70.5106 70.510605 -70.5106l367.10477 0c18.700562 0 36.635254 7.428774 49.85852 20.652077c13.223328 13.223301 20.6521 31.157944 20.6521 49.85852l0 282.03394c0 38.941925 -31.568665 70.51059 -70.51062 70.51059l-367.10477 0c-38.94194 0 -70.510605 -31.568665 -70.510605 -70.51059z" fill-rule="evenodd"/><path fill="#fcc101" fill-opacity="0.4246" d="m17.627296 192.5433l1.3569546 520.6771l147.79527 -124.74542l360.67712 0l-2.7112427 -406.77948l-1.3543701 -17.627304l-505.76376 -1.3569489z" fill-rule="evenodd"/><path fill="#fcc101" fill-opacity="0.4246" d="m166.77953 88.13789l0 0c0 -38.94193 31.568665 -70.5106 70.510605 -70.5106l367.10477 0c18.700562 0 36.635254 7.428774 49.85852 20.652077c13.223328 13.223301 20.6521 31.157944 20.6521 49.85852l0 282.03394c0 38.941925 -31.568665 70.51059 -70.51062 70.51059l-367.10477 0c-38.94194 0 -70.510605 -31.568665 -70.510605 -70.51059z" fill-rule="evenodd"/></g></svg>