<svg version="1.1" viewBox="0.0 0.0 960.0 720.0" fill="none" stroke="none" stroke-linecap="square" stroke-miterlimit="10" xmlns:xlink="http://www.w3.org/1999/xlink" xmlns="http://www.w3.org/2000/svg"><clipPath id="p.0"><path d="m0 0l960.0 0l0 720.0l-960.0 0l0 -720.0z" clip-rule="nonzero"/></clipPath><g clip-path="url(#p.0)"><path fill="#000000" fill-opacity="0.0" d="m0 0l960.0 0l0 720.0l-960.0 0z" fill-rule="evenodd"/><path fill="#ff0000" d="m687.45667 39.322834l-455.59314 -1.3569565l-40.677155 66.44095l-1.3569641 50.1706l44.74803 78.64305l454.23624 0l14.916016 -18.984253l-20.338623 -12.202103l-428.47504 -5.4252014l-25.763779 -66.43831l23.049866 -54.238853l437.9685 -4.0682373l12.202087 -18.981628z" fill-rule="evenodd"/><path fill="#cc0000" d="m237.28871 37.965878l-42.03412 66.44095l-1.3569489 50.1706l47.459305 84.06563l-62.372696 -2.7112885l-35.254593 -42.03412l0 -93.55906l27.118103 -61.01575z" fill-rule="evenodd"/><path fill="#ebf0fb" d="m245.42258 73.220474l-25.761154 63.72966l36.608932 75.93176l431.1863 -5.4252014l-2.7112427 -135.59317z" fill-rule="evenodd"/><path fill="#3d85c6" d="m386.44095 237.96457l-50.16797 66.44095l4.0682373 43.391083l61.015747 47.456696l-181.69554 -9.490814l-40.67717 -66.44095l31.186356 -84.06825z" fill-rule="evenodd"/><path fill="#e69138" d="m301.01575 401.35434l-98.98163 -2.7113037l-37.96588 103.049866l-2.7112885 61.018402l50.167984 82.71124l88.136475 -1.3569336l-46.102356 -126.09973z" fill-rule="evenodd"/><path fill="#ebf0fb" d="m756.60895 273.89764l-359.32022 -1.3543396l-14.916016 31.18634l0 31.18637l33.897644 21.692902l345.76376 1.3569641z" fill-rule="evenodd"/><path fill="#ebf0fb" d="m741.69556 474.57742l-2.7113037 135.59317l-424.40683 4.065613l-28.475067 -86.77954l27.118103 -89.49078l428.4751 -8.136475" fill-rule="evenodd"/><path fill="#0000ff" d="m379.6614 235.93176l-54.23883 63.729645l1.3569641 37.96588l62.37268 63.729675l371.52496 -4.0682373l12.204712 -21.695557l-21.695557 -21.695526l-337.6273 1.3569641l-27.118103 -24.40683l6.7795105 -56.950134l376.95013 1.3569641l8.13385 -21.695557l-23.049866 -16.27034z" fill-rule="evenodd"/><path fill="#ff9900" d="m294.2362 414.91602l-51.524918 104.4068l43.391068 130.16797l461.01575 -4.0682373l-4.0682373 -37.96588l-416.27032 6.779541l-36.608948 -85.42255l35.251984 -93.55905l424.40683 -5.4252014l0 -35.251984l-459.6588 1.3543396l-4.0682373 36.61154z" fill-rule="evenodd"/></g></svg>